<?xml version="1.0" standalone="no"?>
<!DOCTYPE svg PUBLIC "-//W3C//DTD SVG 20010904//EN"
 "http://www.w3.org/TR/2001/REC-SVG-20010904/DTD/svg10.dtd">
<svg version="1.0" xmlns="http://www.w3.org/2000/svg"
 width="260.000000pt" height="260.000000pt" viewBox="0 0 260.000000 260.000000"
 preserveAspectRatio="xMidYMid meet">
<metadata>
Created by potrace 1.14, written by Peter Selinger 2001-2017
</metadata>
<g transform="translate(0.000000,260.000000) scale(0.100000,-0.100000)"
fill="#000000" stroke="none">
<path d="M1350 2569 c0 -5 5 -7 10 -4 23 14 8 -4 -16 -20 -15 -9 -23 -12 -20
-6 5 7 1 9 -8 5 -9 -3 -13 -10 -10 -15 3 -5 -2 -6 -10 -3 -9 3 -16 2 -16 -3 0
-13 -49 -35 -61 -27 -5 3 -8 0 -7 -7 2 -6 -3 -14 -11 -17 -9 -3 -11 0 -6 8 12
19 -27 -4 -64 -40 l-33 -30 7 27 c3 16 11 33 16 38 7 7 8 3 4 -10 -7 -20 -7
-20 10 0 10 12 12 21 5 23 -8 3 -8 8 0 17 9 11 7 12 -9 8 -12 -3 -18 -9 -15
-15 3 -5 -5 -6 -18 -3 -24 6 -90 -28 -86 -43 2 -5 -11 -22 -28 -38 -63 -60
-97 -212 -83 -375 9 -111 18 -151 30 -143 5 3 9 -1 9 -8 0 -7 5 -20 10 -28 8
-13 11 -13 19 -1 14 22 31 3 31 -34 0 -25 4 -33 14 -29 8 3 18 -7 26 -25 18
-44 33 -27 25 28 -5 37 0 63 25 135 28 78 30 92 19 113 l-13 24 -18 -23 -18
-23 11 30 c5 17 19 39 29 50 23 25 45 83 35 93 -3 4 -15 -5 -26 -20 -40 -55
-57 -73 -64 -66 -4 3 9 23 27 45 19 21 47 58 64 83 27 43 31 45 62 39 19 -4
48 -20 65 -35 27 -24 28 -25 12 -4 l-20 24 25 -16 c14 -9 24 -20 23 -25 -1 -4
20 -9 45 -10 l47 -2 -35 14 -35 13 60 2 c52 2 56 3 27 10 -51 12 -52 22 -2 13
50 -8 64 -8 131 2 38 6 46 5 46 -9 0 -9 -4 -16 -9 -16 -5 0 -6 -4 -3 -10 3 -5
1 -10 -5 -10 -6 0 -18 -6 -25 -14 -12 -12 -8 -13 28 -10 39 4 40 3 12 -6 -16
-6 -63 -13 -104 -17 l-74 -6 27 -22 c15 -12 55 -32 89 -44 34 -12 76 -33 92
-46 43 -35 54 -31 19 8 l-29 32 32 -29 c18 -16 30 -33 27 -37 -2 -4 5 -13 16
-19 33 -18 23 -27 -44 -40 -42 -8 -75 -21 -96 -39 -32 -26 -32 -27 -24 -86 4
-33 10 -51 12 -40 2 11 14 26 26 35 24 17 49 23 40 9 -3 -5 4 -9 15 -9 11 0
24 7 29 16 11 20 34 10 25 -11 -3 -10 1 -15 15 -15 23 0 27 34 8 59 -8 10 -8
15 1 18 7 3 24 13 38 25 19 14 24 26 20 42 -4 14 -3 17 3 8 5 -7 7 -59 4 -115
-2 -56 -2 -100 0 -97 5 4 54 114 92 205 21 48 34 115 40 192 4 63 1 80 -24
139 -18 44 -46 85 -80 120 -29 30 -48 54 -42 54 22 0 -41 52 -79 65 -82 29
-309 47 -309 24z m74 -87 c5 -14 14 -17 37 -14 29 4 30 3 20 -17 -11 -19 -9
-20 21 -16 32 5 32 5 8 -6 -104 -49 -150 -67 -150 -58 0 6 -7 6 -19 -1 -25
-13 -34 -13 -26 0 3 5 -14 15 -39 21 -40 10 -44 14 -42 37 5 43 36 56 173 71
6 0 14 -7 17 -17z m145 -99 c23 -6 23 -7 5 -14 -18 -7 -18 -8 2 -8 11 -1 29
-10 39 -21 18 -20 17 -20 -101 -19 -110 1 -116 2 -73 13 39 9 45 13 33 24 -8
7 -12 17 -9 23 7 10 68 12 104 2z m-574 -23 c-3 -5 -16 -15 -28 -21 -21 -10
-21 -9 2 10 25 23 36 27 26 11z m530 -60 c30 -6 21 -7 -35 -3 -41 3 -77 7 -79
9 -8 7 74 3 114 -6z m-65 -20 c-34 -11 -60 -11 -35 0 11 5 29 8 40 8 16 0 15
-2 -5 -8z m-370 -32 c0 -7 -21 -40 -47 -73 -45 -57 -47 -59 -53 -35 -7 29 9
77 20 59 5 -7 18 2 36 25 30 37 44 45 44 24z m590 -75 l33 -6 -24 -18 c-13
-10 -18 -19 -11 -19 22 0 13 -20 -10 -21 -22 0 -22 -1 -3 -10 18 -8 -16 -7
-112 3 -6 1 -24 12 -40 25 l-28 24 42 -21 c23 -11 57 -20 75 -19 18 0 27 3 21
6 -24 9 -14 33 14 33 26 0 26 1 7 15 -21 16 -12 18 36 8z"/>
<path d="M1250 2450 c-9 -6 -10 -10 -3 -10 6 0 15 5 18 10 8 12 4 12 -15 0z"/>
<path d="M1528 2373 c7 -3 16 -2 19 1 4 3 -2 6 -13 5 -11 0 -14 -3 -6 -6z"/>
<path d="M1318 2563 c7 -3 16 -2 19 1 4 3 -2 6 -13 5 -11 0 -14 -3 -6 -6z"/>
<path d="M1768 2473 c7 -3 16 -2 19 1 4 3 -2 6 -13 5 -11 0 -14 -3 -6 -6z"/>
<path d="M1458 2193 c6 -2 18 -2 25 0 6 3 1 5 -13 5 -14 0 -19 -2 -12 -5z"/>
<path d="M1261 1966 c-9 -11 -6 -16 19 -24 38 -14 38 -29 1 -37 -16 -3 -35
-13 -42 -21 -14 -17 2 -19 19 -2 9 9 12 8 12 -5 0 -22 28 -22 52 0 17 15 19
15 36 0 20 -19 37 -23 27 -7 -3 6 2 10 12 10 35 0 43 19 22 55 -13 22 -30 35
-51 39 -51 10 -95 7 -107 -8z"/>
<path d="M1531 1689 c-19 -15 -36 -19 -74 -17 -33 2 -51 -1 -54 -9 -3 -9 6
-13 26 -13 17 0 31 -5 31 -10 0 -6 11 -20 25 -32 33 -28 32 -36 -7 -42 -18 -3
-55 -8 -83 -13 l-50 -7 60 -7 c33 -4 82 -7 109 -8 l49 -1 -23 25 c-22 24 -23
25 -3 25 11 0 26 11 33 25 11 20 10 29 -3 57 -9 18 -13 36 -11 40 8 13 1 9
-25 -13z"/>
<path d="M1030 1661 c0 -6 9 -20 20 -31 11 -11 20 -30 20 -42 1 -18 2 -20 10
-8 4 9 5 31 1 50 -5 26 -13 36 -29 38 -12 2 -22 -1 -22 -7z"/>
<path d="M1430 1492 c0 -21 23 -30 46 -20 34 16 30 28 -11 28 -19 0 -35 -4
-35 -8z"/>
<path d="M1028 1474 c-29 -12 -38 -22 -44 -52 -12 -53 -8 -66 30 -123 25 -38
35 -46 40 -34 4 10 2 14 -6 9 -7 -5 -8 -3 -3 6 6 9 4 11 -6 5 -8 -5 -11 -5 -7
0 4 4 -2 19 -12 33 -11 13 -20 32 -20 41 1 12 3 11 13 -5 27 -45 67 -90 99
-109 l33 -19 -18 28 c-10 15 -16 30 -13 34 4 3 -8 20 -25 38 -31 32 -31 34
-20 78 13 52 14 86 4 85 -5 0 -24 -7 -45 -15z"/>
<path d="M1140 1482 c0 -30 179 -216 240 -250 19 -10 35 -25 35 -33 0 -32 32
-10 59 41 39 74 57 103 62 97 7 -7 -77 -237 -93 -253 -12 -11 -35 -14 -99 -12
-46 1 -84 4 -84 5 0 1 4 13 10 27 9 25 8 26 -15 20 -17 -4 -25 -2 -25 7 0 8
-14 23 -30 34 -16 11 -30 26 -30 33 0 6 -5 12 -11 12 -6 0 -30 13 -54 30 -23
16 -42 24 -42 17 1 -51 -4 -50 -44 6 -22 31 -45 57 -50 57 -5 0 -9 15 -10 33
l-1 32 -8 -28 c-10 -32 -48 -70 -61 -61 -5 3 -9 1 -9 -3 0 -5 -17 -15 -37 -22
-21 -8 -40 -17 -43 -20 -8 -10 -80 -41 -94 -41 -8 0 -17 -7 -20 -16 -3 -8 -10
-12 -16 -9 -22 13 -31 -7 -13 -28 17 -20 17 -20 -1 -14 -10 4 -24 3 -31 -3 -7
-6 -30 -9 -51 -6 -23 2 -47 -2 -61 -11 -12 -8 -23 -14 -25 -13 -7 4 -78 -34
-78 -42 0 -4 -10 -8 -23 -8 -13 0 -36 -14 -53 -31 -16 -17 -44 -38 -62 -46
-26 -11 -32 -18 -27 -33 4 -11 2 -20 -4 -20 -5 0 -15 -16 -22 -35 -7 -19 -19
-35 -27 -35 -10 0 -12 -7 -8 -26 5 -19 4 -24 -5 -18 -9 5 -10 2 -4 -12 4 -10
10 -33 12 -50 4 -25 9 -31 24 -27 26 7 41 -35 44 -125 1 -46 8 -79 17 -90 93
-110 130 -149 196 -204 118 -98 142 -114 154 -97 8 11 9 11 5 -2 -4 -12 15
-27 71 -57 148 -78 349 -135 522 -148 123 -9 410 24 410 47 0 5 6 6 13 3 26
-10 257 87 330 138 23 17 27 26 26 66 -1 42 -2 44 -9 17 -8 -30 -8 -30 -9 8
-1 23 3 36 9 32 6 -3 10 4 10 18 0 14 7 41 15 61 19 44 19 54 1 191 -43 323
-57 359 -177 453 -33 25 -59 49 -59 54 0 5 22 23 50 40 l49 31 -27 20 c-15 11
-65 57 -112 102 -47 45 -103 92 -124 104 -35 20 -40 21 -48 7 -17 -31 -71 -49
-143 -50 -59 0 -80 4 -130 29 -32 17 -80 50 -107 73 -26 24 -48 39 -48 34z
m-180 -172 c0 -5 -4 -10 -10 -10 -5 0 -10 5 -10 10 0 6 5 10 10 10 6 0 10 -4
10 -10z m-5 -70 c2 -23 1 -40 -2 -37 -8 9 -21 76 -15 81 10 10 14 -2 17 -44z
m145 -60 c11 -22 16 -40 12 -40 -5 0 -16 18 -25 40 -8 22 -14 40 -11 40 2 0
13 -18 24 -40z m-264 -16 c-3 -9 -6 -18 -6 -20 0 -3 -4 -3 -10 1 -11 7 -2 35
12 35 6 0 7 -7 4 -16z m-121 -14 c10 -11 16 -20 13 -20 -3 0 -13 9 -23 20 -10
11 -16 20 -13 20 3 0 13 -9 23 -20z m486 -87 c-8 -15 -10 -15 -11 -2 0 17 10
32 18 25 2 -3 -1 -13 -7 -23z m-153 -48 c-3 -3 -9 2 -12 12 -6 14 -5 15 5 6 7
-7 10 -15 7 -18z m-20 -10 c-3 -3 -9 2 -12 12 -6 14 -5 15 5 6 7 -7 10 -15 7
-18z m-408 -3 c0 -14 -11 -21 -26 -15 -21 8 -17 23 6 23 11 0 20 -4 20 -8z
m236 -30 c1 -24 -2 -29 -15 -24 -13 5 -14 3 -4 -10 11 -13 9 -15 -10 -14 -29
2 -49 15 -41 27 4 6 10 6 19 -1 9 -8 11 -5 7 15 -2 15 0 25 7 25 7 0 10 4 7 9
-4 5 2 8 11 7 13 -2 18 -12 19 -34z m147 -27 c4 -8 2 -17 -3 -20 -6 -4 -10 3
-10 14 0 25 6 27 13 6z m397 -35 c0 -21 26 -28 32 -8 2 6 12 -19 23 -57 15
-56 16 -78 8 -119 -9 -42 -8 -59 6 -96 13 -36 16 -86 16 -258 0 -118 -4 -216
-8 -219 -5 -3 -8 8 -6 23 1 16 -5 47 -14 68 -14 31 -15 42 -5 54 9 10 9 13 1
9 -6 -4 -13 -2 -15 5 -9 25 -27 -4 -22 -35 3 -25 2 -28 -5 -12 -9 18 -10 17
-11 -10 -2 -27 -3 -28 -8 -7 -4 13 -10 23 -14 23 -5 -1 -8 2 -7 7 1 4 6 6 12
4 6 -2 5 4 -3 12 -7 9 -9 16 -4 16 5 0 2 5 -6 10 -14 9 -21 69 -9 80 17 16 47
102 44 126 -2 16 -4 33 -4 38 -1 4 -8 6 -15 3 -10 -4 -23 11 -42 48 -24 47
-26 57 -15 78 7 13 11 27 10 33 -6 31 3 85 17 98 17 17 22 35 23 79 1 31 21
38 21 7z m-406 -115 c-6 -16 -24 -21 -24 -7 0 11 11 22 21 22 5 0 6 -7 3 -15z
m23 -167 c-2 -13 -4 -5 -4 17 -1 22 1 32 4 23 2 -10 2 -28 0 -40z m284 29
c-10 -9 -11 -8 -5 6 3 10 9 15 12 12 3 -3 0 -11 -7 -18z m686 -39 c-3 -8 -6
-5 -6 6 -1 11 2 17 5 13 3 -3 4 -12 1 -19z m-1482 -86 c-7 -7 -25 47 -24 71 0
13 6 4 14 -23 8 -24 12 -46 10 -48z m652 26 c-2 -13 -4 -5 -4 17 -1 22 1 32 4
23 2 -10 2 -28 0 -40z m-277 -19 c0 -5 -4 -9 -10 -9 -5 0 -10 7 -10 16 0 8 5
12 10 9 6 -3 10 -10 10 -16z m490 -29 c0 -5 -4 -10 -10 -10 -5 0 -10 5 -10 10
0 6 5 10 10 10 6 0 10 -4 10 -10z m417 -52 c-3 -8 -6 -5 -6 6 -1 11 2 17 5 13
3 -3 4 -12 1 -19z m-1135 -20 c-9 -9 -12 -7 -12 12 0 19 3 21 12 12 9 -9 9
-15 0 -24z m1315 -20 c-3 -8 -6 -5 -6 6 -1 11 2 17 5 13 3 -3 4 -12 1 -19z
m-860 -75 c-3 -10 -5 -4 -5 12 0 17 2 24 5 18 2 -7 2 -21 0 -30z m860 -5 c-3
-7 -5 -2 -5 12 0 14 2 19 5 13 2 -7 2 -19 0 -25z m-1330 -70 c-3 -8 -6 -5 -6
6 -1 11 2 17 5 13 3 -3 4 -12 1 -19z m750 -128 c-3 -11 0 -20 6 -20 6 0 8 -3
4 -6 -11 -12 -25 6 -20 26 3 11 8 20 10 20 3 0 3 -9 0 -20z m80 -97 c-3 -10
-5 -4 -5 12 0 17 2 24 5 18 2 -7 2 -21 0 -30z m-202 8 c-3 -6 -11 -11 -16 -11
-5 0 -4 6 3 14 14 16 24 13 13 -3z"/>
<path d="M1070 1372 c0 -10 26 -34 50 -47 8 -4 2 6 -14 23 -32 34 -36 37 -36
24z"/>
<path d="M598 1153 c7 -3 16 -2 19 1 4 3 -2 6 -13 5 -11 0 -14 -3 -6 -6z"/>
<path d="M170 700 c-10 -6 -7 -18 11 -49 12 -22 24 -40 25 -38 1 1 4 16 7 33
5 35 -21 68 -43 54z"/>
</g>
</svg>
